<svg fill="#164F86" xmlns="http://www.w3.org/2000/svg" xmlns:xlink="http://www.w3.org/1999/xlink" viewBox="0 0 42 37" version="1.1" x="0px" y="0px"><title>importCloud</title><desc>Created with Sketch.</desc><g stroke="none" stroke-width="1" fill="none" fill-rule="evenodd"><g transform="translate(-179.000000, -27.000000)" fill="#164F86"><path d="M179.1013,46.096 C179.1013,50.328 182.6473,55.061 187.3923,55.061 L195.1013,55.061 C195.6543,55.061 196.1013,54.613 196.1013,54.061 C196.1013,53.509 195.6543,53.061 195.1013,53.061 L187.3923,53.061 C183.8493,53.061 181.1013,49.317 181.1013,46.096 L181.1013,45.871 C181.1013,45.821 181.0973,45.771 181.0893,45.721 C180.6813,43.041 181.6993,40.495 183.8113,38.91 C185.6613,37.522 187.9173,37.175 189.7003,38.002 C190.0183,38.15 190.3953,38.119 190.6883,37.918 C190.9803,37.718 191.1433,37.377 191.1183,37.024 C190.8183,32.791 193.2043,29.826 197.4983,29.095 C200.6783,28.548 203.5273,30.352 205.1103,33.911 C205.2543,34.234 205.5583,34.457 205.9093,34.498 C206.2633,34.543 206.6073,34.391 206.8213,34.109 C208.3303,32.121 210.6853,32.331 212.3513,33.419 C214.2423,34.654 215.4573,37.144 213.9103,39.924 C213.7383,40.232 213.7423,40.609 213.9193,40.914 C214.0983,41.219 214.4233,41.408 214.7773,41.41 C217.3103,41.427 218.8693,44.331 218.8603,47.011 C218.8503,49.936 217.0703,53.061 212.1033,53.061 L204.1013,53.061 C203.5483,53.061 203.1013,53.509 203.1013,54.061 C203.1013,54.613 203.5483,55.061 204.1013,55.061 L212.1033,55.061 C218.1333,55.061 220.8463,51.021 220.8603,47.018 C220.8713,43.796 219.1703,40.466 216.2363,39.617 C217.4123,36.242 215.7403,33.243 213.4453,31.744 C211.4213,30.423 208.5043,30.014 206.2783,31.809 C204.2113,28.276 200.8263,26.5 197.1633,27.123 C192.4113,27.932 189.3743,31.236 189.1133,35.713 C186.9723,35.261 184.5933,35.823 182.6113,37.311 C179.9193,39.33 178.6113,42.553 179.1013,45.945 L179.1013,46.096 Z M200.1013,63.0608 C200.6543,63.0608 201.1013,62.6128 201.1013,62.0608 L201.1013,46.6128 L203.8453,49.3688 C204.0403,49.5648 204.2973,49.6638 204.5543,49.6638 C204.8093,49.6638 205.0653,49.5658 205.2603,49.3718 C205.6513,48.9818 205.6533,48.3488 205.2633,47.9578 L200.5343,43.2078 C200.1443,42.8158 199.5103,42.8138 199.1193,43.2048 L194.3693,47.9348 C193.9783,48.3238 193.9763,48.9568 194.3663,49.3488 C194.5613,49.5448 194.8183,49.6428 195.0753,49.6428 C195.3303,49.6428 195.5853,49.5458 195.7813,49.3518 L199.1013,46.0458 L199.1013,62.0608 C199.1013,62.6128 199.5483,63.0608 200.1013,63.0608 Z"></path></g></g></svg>